REM DIRINDEX 1\2,1\3,1\4,1\5
REM DIRNAME cjc004,folder01,folder02,folder03,folder04
TITLE ""
FILE "1Q_t_0740-0749.mp3" MP3
  TRACK 01 AUDIO
    TITLE "3:cjc004_3123"
    INDEX 01 00:00:00
  TRACK 02 AUDIO
    TITLE "0:"
    INDEX 01 00:01:07
  TRACK 03 AUDIO
    TITLE "4:cjc004_3124"
    INDEX 01 00:01:36
  TRACK 04 AUDIO
    TITLE "0:"
    INDEX 01 00:02:63
  TRACK 05 AUDIO
    TITLE "5:cjc004_3125"
    INDEX 01 00:03:15
  TRACK 06 AUDIO
    TITLE "0:"
    INDEX 01 00:06:71
  TRACK 07 AUDIO
    TITLE "3:cjc004_3126"
    INDEX 01 00:07:45
  TRACK 08 AUDIO
    TITLE "0:"
    INDEX 01 00:08:48
  TRACK 09 AUDIO
    TITLE "4:cjc004_3127"
    INDEX 01 00:09:06
  TRACK 10 AUDIO
    TITLE "0:"
    INDEX 01 00:10:39
  TRACK 11 AUDIO
    TITLE "5:cjc004_3128"
    INDEX 01 00:10:66
  TRACK 12 AUDIO
    TITLE "0:"
    INDEX 01 00:16:28
  TRACK 13 AUDIO
    TITLE "3:cjc004_3129"
    INDEX 01 00:17:10
  TRACK 14 AUDIO
    TITLE "0:"
    INDEX 01 00:18:17
  TRACK 15 AUDIO
    TITLE "4:cjc004_3130"
    INDEX 01 00:18:48
  TRACK 16 AUDIO
    TITLE "0:"
    INDEX 01 00:20:32
  TRACK 17 AUDIO
    TITLE "5:cjc004_3131"
    INDEX 01 00:20:55
  TRACK 18 AUDIO
    TITLE "0:"
    INDEX 01 00:24:45
  TRACK 19 AUDIO
    TITLE "3:cjc004_3132"
    INDEX 01 00:25:25
  TRACK 20 AUDIO
    TITLE "0:"
    INDEX 01 00:26:32
  TRACK 21 AUDIO
    TITLE "4:cjc004_3133"
    INDEX 01 00:26:64
  TRACK 22 AUDIO
    TITLE "0:"
    INDEX 01 00:28:27
  TRACK 23 AUDIO
    TITLE "5:cjc004_3134"
    INDEX 01 00:28:49
  TRACK 24 AUDIO
    TITLE "0:"
    INDEX 01 00:32:74
  TRACK 25 AUDIO
    TITLE "3:cjc004_3135"
    INDEX 01 00:33:50
  TRACK 26 AUDIO
    TITLE "0:"
    INDEX 01 00:34:63
  TRACK 27 AUDIO
    TITLE "4:cjc004_3136"
    INDEX 01 00:35:15
  TRACK 28 AUDIO
    TITLE "0:"
    INDEX 01 00:36:25
  TRACK 29 AUDIO
    TITLE "5:cjc004_3137"
    INDEX 01 00:36:48
  TRACK 30 AUDIO
    TITLE "0:"
    INDEX 01 00:40:21
  TRACK 31 AUDIO
    TITLE "3:cjc004_3138"
    INDEX 01 00:41:00
  TRACK 32 AUDIO
    TITLE "0:"
    INDEX 01 00:42:23
  TRACK 33 AUDIO
    TITLE "4:cjc004_3139"
    INDEX 01 00:42:57
  TRACK 34 AUDIO
    TITLE "0:"
    INDEX 01 00:44:42
  TRACK 35 AUDIO
    TITLE "5:cjc004_3140"
    INDEX 01 00:44:71
  TRACK 36 AUDIO
    TITLE "0:"
    INDEX 01 00:49:27
  TRACK 37 AUDIO
    TITLE "3:cjc004_3141"
    INDEX 01 00:50:09
  TRACK 38 AUDIO
    TITLE "0:"
    INDEX 01 00:51:28
  TRACK 39 AUDIO
    TITLE "4:cjc004_3142"
    INDEX 01 00:51:54
  TRACK 40 AUDIO
    TITLE "0:"
    INDEX 01 00:53:08
  TRACK 41 AUDIO
    TITLE "5:cjc004_3143"
    INDEX 01 00:53:33
  TRACK 42 AUDIO
    TITLE "0:"
    INDEX 01 00:58:42
  TRACK 43 AUDIO
    TITLE "3:cjc004_3144"
    INDEX 01 00:59:18
  TRACK 44 AUDIO
    TITLE "0:"
    INDEX 01 01:00:43
  TRACK 45 AUDIO
    TITLE "4:cjc004_3145"
    INDEX 01 01:00:74
  TRACK 46 AUDIO
    TITLE "0:"
    INDEX 01 01:02:44
  TRACK 47 AUDIO
    TITLE "5:cjc004_3146"
    INDEX 01 01:02:73
  TRACK 48 AUDIO
    TITLE "0:"
    INDEX 01 01:07:25
  TRACK 49 AUDIO
    TITLE "3:cjc004_3147"
    INDEX 01 01:07:72
  TRACK 50 AUDIO
    TITLE "0:"
    INDEX 01 01:09:12
  TRACK 51 AUDIO
    TITLE "4:cjc004_3148"
    INDEX 01 01:09:42
  TRACK 52 AUDIO
    TITLE "0:"
    INDEX 01 01:10:65
  TRACK 53 AUDIO
    TITLE "5:cjc004_3149"
    INDEX 01 01:11:15
  TRACK 54 AUDIO
    TITLE "0:"
    INDEX 01 01:15:23
  TRACK 55 AUDIO
    TITLE "3:cjc004_3150"
    INDEX 01 01:15:74
  TRACK 56 AUDIO
    TITLE "0:"
    INDEX 01 01:17:08
  TRACK 57 AUDIO
    TITLE "4:cjc004_3151"
    INDEX 01 01:17:35
  TRACK 58 AUDIO
    TITLE "0:"
    INDEX 01 01:18:47
  TRACK 59 AUDIO
    TITLE "5:cjc004_3152"
    INDEX 01 01:18:74
  TRACK 60 AUDIO
    TITLE "0:"
    INDEX 01 01:24:51
